<svg id="Logo" xmlns="http://www.w3.org/2000/svg" viewBox="0 0 1053 482"><defs><style>.cls-1{fill:#0000a4;stroke-width:0}</style></defs><path class="cls-1" d="M560.87 134.02c65.51 0 90.55 42.65 90.55 80.29 0 41.17-28.83 80.29-89.97 80.29-65.51 0-91.14-42.35-91.14-80.29 0-40 27.08-80.29 90.55-80.29zm0 110.29c18.52 0 31.26-12.35 31.26-30s-12.75-30-31.26-30-31.26 12.35-31.26 30 12.75 30 31.26 30zM663.45 91.32h59.23V291.9h-59.23V91.32z"/><circle class="cls-1" cx="767.97" cy="258.47" r="36.13"/><path class="cls-1" d="M285.36 91.32h59.23v49.12c11.65-4.41 23.67-6.47 36.19-6.47 46.59 0 80.36 34.12 80.36 80.88 0 35.29-24.17 77.06-79.2 77.06h-96.58V91.32zm59.23 150.81c7.96 1.49 16.8 2.12 22.7 2.12 21.51 0 35.66-11.84 35.66-30s-13.85-30-33.89-30c-7.37 0-16.22 1.02-24.47 3.7v54.18zM107.75 391.25c-9.21 0-16.27-6.65-16.27-18.14v-.55c0-11.15 7.27-18.63 16.83-18.63 7.13 0 11.22 4.09 13.23 8.59v-22.3h-5.82v-3.05h9.49v50.62h5.82v2.91h-9.49v-8.38c-1.87 4.36-6.92 8.93-13.78 8.93zm13.85-18.42v-.55c0-10.04-5.33-15.37-12.95-15.37s-13.37 5.61-13.37 15.51v.55c0 9.97 5.61 15.3 12.81 15.3s13.5-5.4 13.5-15.44zm11.44.14v-.55c0-10.94 6.92-18.49 16.62-18.49 8.73 0 15.86 5.68 15.86 17.66v1.32h-28.67c.14 9.69 4.78 15.23 13.37 15.23 6.02 0 10.11-2.49 11.36-7.55h3.67c-1.52 6.92-7.27 10.66-15.03 10.66-10.46 0-17.17-7.41-17.17-18.28zm28.74-3.05c-.42-8.79-5.06-12.88-12.12-12.88s-11.98 4.99-12.67 12.88h24.79zm46.02 20.78h-3.95l-10.46-33.17h-4.15v-3.05h13.78v3.05h-5.75l8.79 28.67 9.9-31.72h3.12l9.56 31.72 8.79-28.67h-5.96v-3.05h13.64v3.05h-4.09l-10.53 33.17h-4.09l-9-30.33-9.63 30.33zm42.16 0v-2.91h5.33v-30.26h-5.54v-3.05h9.21v33.31h5.54v2.91h-14.54zm4.15-47.02c0-1.45 1.18-2.63 2.7-2.63s2.63 1.18 2.63 2.63-1.18 2.7-2.63 2.7-2.7-1.18-2.7-2.7zm14.82 47.02v-2.91h5.33v-30.26h-5.54v-3.05h9.21v7.27c1.66-4.02 6.3-7.83 12.67-7.83 7.55 0 12.74 4.09 12.74 14.33v19.53h5.47v2.91h-14.75v-2.91h5.61v-19.74c0-7.55-3.6-10.94-9.9-10.94-5.89 0-11.84 4.02-11.84 11.56v19.11h5.61v2.91h-14.61zm58.3 0h-14.4v-2.91h5.33v-47.57h-5.61v-3.05h9.28v34.56l15.86-14.47h-5.61v-2.77h14.47v2.91h-4.92l-15.58 14.06 16.62 16.34h4.99v2.91h-6.65l-19.18-18.84v15.93h5.4v2.91zm21.11-17.73v-.55c0-10.94 6.92-18.49 16.62-18.49 8.73 0 15.86 5.68 15.86 17.66v1.32h-28.67c.14 9.69 4.78 15.23 13.37 15.23 6.02 0 10.11-2.49 11.36-7.55h3.67c-1.52 6.92-7.27 10.66-15.03 10.66-10.46 0-17.17-7.41-17.17-18.28zm28.74-3.05c-.42-8.79-5.06-12.88-12.12-12.88s-11.98 4.99-12.67 12.88h24.79zm7.13 20.78v-2.91h5.33v-47.57h-5.61v-3.05h9.28v50.62h5.47v2.91h-14.47zm71.45-33.17L443.2 390.7h-4.57l-12.88-33.17h-4.22v-3.05h13.78v3.05h-5.54l11.29 29.78 11.08-29.78h-5.68v-3.05h13.43v3.05h-4.22zm17.29 33.72c-7.06 0-12.12-3.46-12.12-10.32 0-8.45 8.03-11.01 16.9-11.01h7.48v-3.19c0-6.92-2.91-9.7-9.14-9.7-5.4 0-9.14 2.22-9.97 7.69h-3.67c.83-7.76 7.06-10.8 13.78-10.8 7.55 0 12.67 3.46 12.67 12.81v21.05h5.33v2.91h-9v-5.75c-2.22 3.67-6.23 6.3-12.26 6.3zm12.26-12.26v-6.37h-7.41c-7.48 0-13.3 1.8-13.3 8.31 0 4.43 2.91 7.34 8.79 7.34 6.51 0 11.91-3.88 11.91-9.28zm13.26 11.71v-2.91h5.33v-30.26h-5.54v-3.05h9.21v7.27c1.66-4.02 6.3-7.83 12.67-7.83 7.55 0 12.74 4.09 12.74 14.33v19.53h5.47v2.91H523.6v-2.91h5.61v-19.74c0-7.55-3.6-10.94-9.9-10.94-5.89 0-11.84 4.02-11.84 11.56v19.11h5.61v2.91h-14.61zm63.64-17.8v-.55c0-10.87 7.83-18.42 17.59-18.42s17.38 7.34 17.38 18.35v.55c0 10.94-7.76 18.42-17.52 18.42s-17.45-7.69-17.45-18.35zm31.16 0v-.55c0-9.56-5.89-15.3-13.57-15.3s-13.78 5.89-13.78 15.3v.55c0 9.28 5.82 15.23 13.71 15.23s13.64-5.89 13.64-15.23zm7.17 17.8v-2.91h5.33v-30.26h-5.54v-3.05h9.21v7.27c1.66-4.02 6.3-7.83 12.67-7.83 7.55 0 12.74 4.09 12.74 14.33v19.53h5.47v2.91h-14.75v-2.91h5.61v-19.74c0-7.55-3.6-10.94-9.9-10.94-5.89 0-11.84 4.02-11.84 11.56v19.11h5.61v2.91h-14.61zm47.73-5.54v5.54h-3.12v-11.43h2.98c.9 4.92 4.5 9.07 11.08 9.07 5.82 0 8.93-2.91 8.93-7.2 0-4.64-2.77-6.23-9.56-7.41-8.86-1.66-12.53-4.29-12.53-10.39s4.92-9.42 11.36-9.42c4.99 0 8.45 1.94 9.83 5.19v-4.64h3.12v9.69h-3.05c-.97-4.78-4.57-7.27-9.63-7.27s-8.24 2.28-8.24 6.37 2.56 5.75 9.9 7.13c7.76 1.45 12.4 3.46 12.4 10.53 0 5.89-4.5 10.39-12.6 10.39-6.37 0-9.83-3.32-10.87-6.16zm61.01 6.09c-7.06 0-12.12-3.46-12.12-10.32 0-8.45 8.03-11.01 16.9-11.01h7.48v-3.19c0-6.92-2.91-9.7-9.14-9.7-5.4 0-9.14 2.22-9.97 7.69h-3.67c.83-7.76 7.06-10.8 13.78-10.8 7.55 0 12.67 3.46 12.67 12.81v21.05h5.33v2.91h-9v-5.75c-2.22 3.67-6.23 6.3-12.26 6.3zm12.26-12.26v-6.37h-7.41c-7.48 0-13.3 1.8-13.3 8.31 0 4.43 2.91 7.34 8.79 7.34 6.51 0 11.91-3.88 11.91-9.28zm13.32 11.71v-2.91h5.33v-47.57h-5.61v-3.05h9.28v50.62h5.47v2.91h-14.47zm18.72 0v-2.91h5.33v-47.57h-5.61v-3.05h9.28v50.62h5.47v2.91h-14.47zm16.79-17.73v-.55c0-10.94 6.92-18.49 16.62-18.49 8.73 0 15.86 5.68 15.86 17.66v1.32h-28.67c.14 9.69 4.78 15.23 13.37 15.23 6.02 0 10.11-2.49 11.36-7.55h3.67c-1.52 6.92-7.27 10.66-15.03 10.66-10.46 0-17.17-7.41-17.17-18.28zm28.74-3.05c-.42-8.79-5.06-12.88-12.12-12.88s-11.98 4.99-12.67 12.88h24.79zm7.19 20.78v-2.91h5.33v-30.26h-5.54v-3.05h9.21v7.13c1.59-4.02 5.89-7.69 11.77-7.69 5.4 0 9.49 2.29 11.08 8.38 2.22-5.26 7.2-8.38 12.6-8.38 6.99 0 11.98 3.81 11.98 14.13v19.74h5.47v2.91h-14.75v-2.91h5.61v-19.94c0-7.69-3.12-10.73-8.93-10.73s-11.08 3.95-11.08 11.5v19.18h5.61v2.91h-14.89v-2.91h5.61v-19.94c0-7.69-3.12-10.73-9-10.73-5.54 0-11.08 3.95-11.08 11.5v19.18h5.61v2.91H806.2zm77.9.55c-7.06 0-12.12-3.46-12.12-10.32 0-8.45 8.03-11.01 16.9-11.01h7.48v-3.19c0-6.92-2.91-9.7-9.14-9.7-5.4 0-9.14 2.22-9.97 7.69h-3.67c.83-7.76 7.06-10.8 13.78-10.8 7.55 0 12.67 3.46 12.67 12.81v21.05h5.33v2.91h-9v-5.75c-2.22 3.67-6.23 6.3-12.26 6.3zm12.26-12.26v-6.37h-7.41c-7.48 0-13.3 1.8-13.3 8.31 0 4.43 2.91 7.34 8.79 7.34 6.51 0 11.91-3.88 11.91-9.28zm25.06 12.26c-7.06 0-12.12-3.46-12.12-10.32 0-8.45 8.03-11.01 16.9-11.01h7.48v-3.19c0-6.92-2.91-9.7-9.14-9.7-5.4 0-9.14 2.22-9.97 7.69h-3.67c.83-7.76 7.06-10.8 13.78-10.8 7.55 0 12.67 3.46 12.67 12.81v21.05h5.33v2.91h-9v-5.75c-2.22 3.67-6.23 6.3-12.26 6.3zm12.26-12.26v-6.37h-7.41c-7.48 0-13.3 1.8-13.3 8.31 0 4.43 2.91 7.34 8.79 7.34 6.51 0 11.91-3.88 11.91-9.28zm13.5 11.71v-2.91h5.33v-47.57h-5.61v-3.05h9.28v50.62h5.47v2.91h-14.47z"/></svg>